<?xml version="1.0" encoding="UTF-8" standalone="no"?>
<svg
   xmlns:dc="http://purl.org/dc/elements/1.1/"
   xmlns:cc="http://creativecommons.org/ns#"
   xmlns:rdf="http://www.w3.org/1999/02/22-rdf-syntax-ns#"
   xmlns:svg="http://www.w3.org/2000/svg"
   xmlns="http://www.w3.org/2000/svg"
   viewBox="0 0 533.33331 355.556"
   height="355.556"
   width="533.33331"
   xml:space="preserve"
   id="svg2"
   version="1.1"><metadata
     id="metadata8"><rdf:RDF><cc:Work
         rdf:about=""><dc:format>image/svg+xml</dc:format><dc:type
           rdf:resource="http://purl.org/dc/dcmitype/StillImage" /></cc:Work></rdf:RDF></metadata><defs
     id="defs6"><clipPath
       id="clipPath18"
       clipPathUnits="userSpaceOnUse"><path
         id="path16"
         d="M 0,266.667 H 400 V 0 H 0 Z" /></clipPath><clipPath
       id="clipPath30"
       clipPathUnits="userSpaceOnUse"><path
         id="path28"
         d="m 200,180.887 c 26.821,-2.146 47.92,-24.576 47.92,-51.949 v 0 c 0,-27.371 -21.099,-49.8 -47.92,-51.947 v 0 c 1.39,-0.111 2.793,-0.184 4.212,-0.184 v 0 c 28.792,0 52.131,23.341 52.131,52.131 v 0 c 0,28.792 -23.339,52.133 -52.131,52.133 v 0 c -1.419,0 -2.822,-0.073 -4.212,-0.184" /></clipPath><linearGradient
       id="linearGradient44"
       spreadMethod="pad"
       gradientTransform="matrix(0,104.26384,104.26384,0,228.17194,76.807335)"
       gradientUnits="userSpaceOnUse"
       y2="0"
       x2="1"
       y1="0"
       x1="0"><stop
         id="stop40"
         offset="0"
         style="stop-opacity:1;stop-color:#ffffff" /><stop
         id="stop42"
         offset="1"
         style="stop-opacity:0;stop-color:#ffffff" /></linearGradient><mask
       id="mask46"
       height="1"
       width="1"
       y="0"
       x="0"
       maskUnits="userSpaceOnUse"><g
         id="g56"><g
           id="g54"><g
             id="g52"><g
               id="g50"><path
                 id="path48"
                 style="fill:url(#linearGradient44);stroke:none"
                 d="M -32768,32767 H 32767 V -32768 H -32768 Z" /></g></g></g></g></mask><linearGradient
       id="linearGradient66"
       spreadMethod="pad"
       gradientTransform="matrix(0,104.26384,104.26384,0,228.17194,76.807335)"
       gradientUnits="userSpaceOnUse"
       y2="0"
       x2="1"
       y1="0"
       x1="0"><stop
         id="stop62"
         offset="0"
         style="stop-opacity:1;stop-color:#d0d2d3" /><stop
         id="stop64"
         offset="1"
         style="stop-opacity:1;stop-color:#d0d2d3" /></linearGradient><clipPath
       id="clipPath76"
       clipPathUnits="userSpaceOnUse"><path
         id="path74"
         d="M 0,266.667 H 400 V 0 H 0 Z" /></clipPath><clipPath
       id="clipPath92"
       clipPathUnits="userSpaceOnUse"><path
         id="path90"
         d="m 153.87,128.938 c 0,-23.149 18.767,-41.917 41.918,-41.917 v 0 c 23.15,0 41.918,18.768 41.918,41.917 v 0 c 0,23.152 -18.768,41.919 -41.918,41.919 v 0 c -23.151,0 -41.918,-18.767 -41.918,-41.919" /></clipPath><clipPath
       id="clipPath116"
       clipPathUnits="userSpaceOnUse"><path
         id="path114"
         d="M 0,266.667 H 400 V 0 H 0 Z" /></clipPath></defs><g
     transform="matrix(1.3333333,0,0,-1.3333333,0,355.556)"
     id="g10"><g
       id="g12"><g
         clip-path="url(#clipPath18)"
         id="g14"><g
           transform="translate(256.3437,128.9388)"
           id="g20"><path
             id="path22"
             style="fill:#e5e6e7;fill-opacity:1;fill-rule:nonzero;stroke:none"
             d="m 0,0 c 0,-28.791 -23.34,-52.132 -52.132,-52.132 -28.791,0 -52.132,23.341 -52.132,52.132 0,28.792 23.341,52.132 52.132,52.132 C -23.34,52.132 0,28.792 0,0" /></g></g></g><g
       id="g24"><g
         clip-path="url(#clipPath30)"
         id="g26"><g
           id="g32"><g
             id="g34" /><g
             mask="url(#mask46)"
             id="g58"><g
               id="g60"><path
                 id="path68"
                 style="fill:url(#linearGradient66);stroke:none"
                 d="m 200,180.887 c 26.821,-2.146 47.92,-24.576 47.92,-51.949 v 0 c 0,-27.371 -21.099,-49.8 -47.92,-51.947 v 0 c 1.39,-0.111 2.793,-0.184 4.212,-0.184 v 0 c 28.792,0 52.131,23.341 52.131,52.131 v 0 c 0,28.792 -23.339,52.133 -52.131,52.133 v 0 c -1.419,0 -2.822,-0.073 -4.212,-0.184" /></g></g></g></g></g><g
       id="g70"><g
         clip-path="url(#clipPath76)"
         id="g72"><g
           transform="translate(247.9199,128.9388)"
           id="g78"><path
             id="path80"
             style="fill:#e5e6e7;fill-opacity:1;fill-rule:nonzero;stroke:none"
             d="m 0,0 c 0,-28.791 -23.34,-52.132 -52.132,-52.132 -28.791,0 -52.132,23.341 -52.132,52.132 0,28.792 23.341,52.132 52.132,52.132 C -23.34,52.132 0,28.792 0,0" /></g><g
           transform="translate(237.7061,128.9388)"
           id="g82"><path
             id="path84"
             style="fill:#f8f8f8;fill-opacity:1;fill-rule:nonzero;stroke:none"
             d="m 0,0 c 0,-23.15 -18.768,-41.918 -41.918,-41.918 -23.151,0 -41.918,18.768 -41.918,41.918 0,23.151 18.767,41.918 41.918,41.918 C -18.768,41.918 0,23.151 0,0" /></g></g></g><g
       id="g86"><g
         clip-path="url(#clipPath92)"
         id="g88"><g
           transform="translate(195.7881,176.0291)"
           id="g94"><path
             id="path96"
             style="fill:none;stroke:#bbbdbf;stroke-width:2;stroke-linecap:butt;stroke-linejoin:miter;stroke-miterlimit:10;stroke-dasharray:none;stroke-opacity:1"
             d="M 0,0 V -10.344" /></g><g
           transform="translate(195.7881,92.1927)"
           id="g98"><path
             id="path100"
             style="fill:none;stroke:#bbbdbf;stroke-width:2;stroke-linecap:butt;stroke-linejoin:miter;stroke-miterlimit:10;stroke-dasharray:none;stroke-opacity:1"
             d="M 0,0 V -10.343" /></g><g
           transform="translate(242.8779,128.9388)"
           id="g102"><path
             id="path104"
             style="fill:none;stroke:#bbbdbf;stroke-width:2;stroke-linecap:butt;stroke-linejoin:miter;stroke-miterlimit:10;stroke-dasharray:none;stroke-opacity:1"
             d="M 0,0 H -10.344" /></g><g
           transform="translate(159.0415,128.9388)"
           id="g106"><path
             id="path108"
             style="fill:none;stroke:#bbbdbf;stroke-width:2;stroke-linecap:butt;stroke-linejoin:miter;stroke-miterlimit:10;stroke-dasharray:none;stroke-opacity:1"
             d="M 0,0 H -10.343" /></g></g></g><g
       id="g110"><g
         clip-path="url(#clipPath116)"
         id="g112"><g
           transform="translate(238.709,163.6395)"
           id="g118"><path
             id="path120"
             style="fill:none;stroke:#ea5f00;stroke-width:4.5999999;stroke-linecap:round;stroke-linejoin:round;stroke-miterlimit:10;stroke-dasharray:none;stroke-opacity:1"
             d="m 0,0 -43.512,-43.511 -18.68,18.681" /></g></g></g></g></svg>